<svg width="153" height="154" viewBox="0 0 153 154" fill="none" xmlns="http://www.w3.org/2000/svg">
<g clip-path="url(#clip0_1_524)">
<path d="M8.59996 39.9566L22.9979 48.3993L21.5949 50.7815L7.19696 42.3388L8.59996 39.9566ZM8.07839 40.8409L12.34 33.5892L14.4788 34.8449L10.2173 42.0966L8.07839 40.8409ZM13.7147 44.1436L17.7377 37.3039L19.8361 38.5354L15.8131 45.3751L13.7147 44.1436ZM20.3415 48.0279L24.6071 40.7762L26.746 42.032L22.4804 49.2836L20.3415 48.0279Z" fill="#0B103D"/>
<path d="M26.8794 32.8099L27.2918 33.2743L29.4226 38.5676L27.211 40.8408L20.2607 22.7239L38.5886 29.1559L36.377 31.429L31.1531 29.5152L30.6073 29.0832L24.316 26.6606L26.8794 32.8099ZM25.4319 33.0966L30.8377 27.5448L32.9321 28.8127L26.7783 35.1356L25.4319 33.0966Z" fill="#0B103D"/>
<path d="M33.5669 12.8478L42.3569 27.0239L39.9633 28.5058L31.1733 14.3296L33.5669 12.8478ZM32.5965 13.4494L35.5562 11.6163C36.5832 10.9824 37.594 10.6109 38.5805 10.5019C39.5711 10.3929 40.4768 10.5382 41.3016 10.9339C42.1264 11.3296 42.8138 11.9716 43.3677 12.8639C43.9216 13.7562 44.1925 14.6607 44.1845 15.5812C44.1764 16.5018 43.9014 17.382 43.3637 18.2178C42.8259 19.0536 42.0415 19.7925 41.0146 20.4264L38.0549 22.2595L36.8379 20.2932L39.6965 18.5247C40.2383 18.1896 40.6547 17.8019 40.9499 17.3578C41.245 16.9137 41.3946 16.4413 41.4027 15.9406C41.4108 15.4399 41.2612 14.9393 40.9499 14.4426C40.6304 13.9298 40.2504 13.5705 39.8016 13.3605C39.3528 13.1506 38.8676 13.0819 38.3339 13.1465C37.8042 13.2111 37.2705 13.413 36.7287 13.7481L33.8702 15.5166L32.5965 13.4494ZM41.2895 18.3309L50.2897 22.1222L47.411 23.9028L38.6937 19.9338L41.2895 18.3309Z" fill="#0B103D"/>
<path d="M61.2186 1.16687L66.2363 17.9433L51.1065 9.90031L54.3168 20.6283L51.6644 21.4197L46.6468 4.64329L61.7766 12.6863L58.5662 1.95825L61.2186 1.16687Z" fill="#0B103D"/>
<path d="M82.3485 0.314937L80.4846 16.8855L77.6867 16.5705L79.5506 0L82.3485 0.314937ZM81.2124 0.185732L84.6734 0.573346C85.8742 0.706589 86.8972 1.03768 87.7422 1.56661C88.5872 2.0915 89.2099 2.76579 89.6142 3.58543C90.0185 4.40508 90.1601 5.33777 90.0428 6.37949C89.9255 7.4212 89.5778 8.30141 88.9996 9.02011C88.4215 9.73881 87.6654 10.2597 86.7233 10.5867C85.7812 10.9138 84.7098 11.0066 83.5089 10.8734L80.0479 10.4858L80.3067 8.18835L83.6504 8.56385C84.2812 8.63653 84.8513 8.58808 85.3607 8.4185C85.8661 8.25296 86.2785 7.97436 86.5939 7.58674C86.9093 7.19913 87.0993 6.71057 87.1681 6.12915C87.2368 5.53158 87.1559 5.01072 86.9335 4.57062C86.7112 4.13052 86.3715 3.77116 85.9147 3.4966C85.4578 3.22204 84.9119 3.04843 84.2812 2.97575L80.9374 2.60025L81.2124 0.185732ZM85.0251 9.38754L89.7557 17.9231L86.3877 17.5436L81.9887 9.04434L85.0251 9.38754Z" fill="#0B103D"/>
<path d="M99.4595 3.68228L93.9445 19.421L91.3326 18.5085L96.8476 2.76978L99.4595 3.68228ZM93.7949 16.7441L101.744 19.522L100.923 21.8598L92.9742 19.0819L93.7949 16.7441ZM96.3341 9.50457L103.83 12.125L103.026 14.4184L95.5295 11.798L96.3341 9.50457ZM98.4932 3.34312L106.442 6.12102L105.621 8.45882L97.6724 5.68092L98.4932 3.34312Z" fill="#0B103D"/>
<path d="M128.995 20.4709L131.615 22.4211L115.645 32.4344L118.564 19.9016L107.38 26.2851L112.41 8.13586L115.03 10.086L111.525 21.4076L122.51 14.6123L119.174 27.1007L128.995 20.4709Z" fill="#0B103D"/>
<path d="M127.374 35.2245L126.848 35.5596L121.281 36.8476L119.376 34.316L138.372 30.2501L129.181 47.3415L127.277 44.8099L129.978 39.9526L130.487 39.4802L133.855 33.6458L127.374 35.2245ZM127.313 33.7508L131.971 39.9405L130.394 41.8099L125.09 34.7642L127.313 33.7508Z" fill="#0B103D"/>
<path d="M146.094 44.9148L130.702 51.3831L129.61 48.7909L145.002 42.3226L146.094 44.9148ZM139.471 51.6819L134.32 59.9712L133.006 56.8541L138.287 48.8717L139.471 51.6819ZM145.649 43.861L147 47.0669C147.469 48.1772 147.679 49.231 147.631 50.2243C147.582 51.2176 147.299 52.0897 146.781 52.8447C146.26 53.5958 145.516 54.1772 144.55 54.585C143.583 54.9928 142.645 55.1179 141.736 54.9685C140.826 54.8151 140.001 54.4114 139.253 53.7492C138.509 53.087 137.903 52.2028 137.434 51.0884L136.083 47.8825L138.214 46.9861L139.52 50.083C139.766 50.6685 140.086 51.1409 140.482 51.5002C140.874 51.8596 141.319 52.0816 141.812 52.1705C142.306 52.2553 142.823 52.1866 143.365 51.9565C143.923 51.7223 144.339 51.3993 144.614 50.9915C144.889 50.5837 145.035 50.1113 145.055 49.5783C145.071 49.0453 144.958 48.4881 144.711 47.9027L143.405 44.8058L145.649 43.861Z" fill="#0B103D"/>
<path d="M151.637 61.8568L135.125 64.3318L134.7 61.5055L151.213 59.0304L151.637 61.8568ZM134.959 63.2255L137.579 62.8339L138.109 66.3668C138.23 67.1824 138.465 67.9213 138.804 68.5754C139.144 69.2295 139.589 69.7786 140.138 70.2187C140.688 70.6588 141.335 70.9697 142.087 71.1555C142.839 71.3412 143.676 71.3614 144.606 71.2241C145.532 71.0868 146.329 70.8163 146.996 70.4206C147.659 70.0249 148.189 69.5364 148.585 68.9549C148.981 68.3735 149.244 67.7194 149.377 66.9926C149.511 66.2659 149.515 65.4947 149.389 64.6791L148.86 61.1461L151.48 60.7545L152.022 64.3601C152.276 66.0398 152.155 67.57 151.662 68.9428C151.168 70.3156 150.36 71.4542 149.232 72.3546C148.104 73.255 146.709 73.8284 145.039 74.0787C143.373 74.3291 141.869 74.1877 140.527 73.6588C139.184 73.1299 138.076 72.2779 137.199 71.111C136.322 69.9401 135.76 68.5148 135.505 66.8352L134.959 63.2255Z" fill="#0B103D"/>
<path d="M139.997 80.216C139.475 80.5874 139.059 81.0154 138.752 81.4999C138.444 81.9804 138.258 82.5376 138.198 83.1715C138.125 83.9306 138.275 84.5685 138.642 85.0813C139.01 85.5941 139.52 85.8808 140.167 85.9413C140.785 85.9979 141.295 85.8929 141.695 85.6304C142.095 85.364 142.451 84.9804 142.763 84.4757C143.074 83.971 143.389 83.3815 143.709 82.7112C143.891 82.3115 144.125 81.8714 144.42 81.3909C144.711 80.9064 145.067 80.4542 145.484 80.0302C145.9 79.6063 146.393 79.2712 146.968 79.0208C147.542 78.7705 148.217 78.6817 148.993 78.7543C149.879 78.8391 150.639 79.1379 151.27 79.6628C151.9 80.1837 152.365 80.8539 152.66 81.6736C152.96 82.4892 153.061 83.3976 152.968 84.3949C152.875 85.3761 152.62 86.2119 152.203 86.9063C151.787 87.6008 151.286 88.1701 150.699 88.6183C150.113 89.0665 149.515 89.4057 148.904 89.6358L147.837 87.2374C148.269 87.0719 148.678 86.8458 149.062 86.5631C149.45 86.2805 149.769 85.9373 150.02 85.5416C150.275 85.1419 150.424 84.6655 150.477 84.1123C150.55 83.3371 150.424 82.7516 150.105 82.3559C149.786 81.9602 149.385 81.7382 148.908 81.6937C148.48 81.6534 148.083 81.7503 147.72 81.9764C147.356 82.2065 146.996 82.582 146.644 83.1069C146.292 83.6318 145.916 84.3223 145.516 85.1782C145.298 85.6506 145.027 86.1271 144.711 86.5995C144.396 87.0719 144.016 87.4958 143.575 87.8673C143.135 88.2388 142.629 88.5254 142.071 88.7192C141.509 88.9131 140.866 88.9777 140.138 88.909C139.362 88.8363 138.679 88.6223 138.093 88.263C137.502 87.9036 137.021 87.4433 136.653 86.8821C136.281 86.3209 136.014 85.7031 135.845 85.0248C135.675 84.3465 135.626 83.652 135.691 82.9414C135.784 81.9602 136.063 81.0719 136.528 80.2806C136.993 79.4851 137.579 78.8109 138.287 78.2577C138.994 77.7005 139.746 77.2766 140.539 76.9858L141.792 79.2106C141.117 79.5053 140.523 79.8445 139.997 80.216Z" fill="#0B103D"/>
<path d="M137.624 123.887L135.942 126.685L124.378 111.811L137.155 113.466L129.683 102.984L148.269 106.178L146.587 108.976L134.955 106.618L142.823 116.862L130.047 114.79L137.624 123.887Z" fill="#0B103D"/>
<path d="M129.392 132.37L117.606 120.556L119.615 118.553L131.401 130.368L129.392 132.37Z" fill="#0B103D"/>
<path d="M126.23 135.512L116.841 142.384L115.305 140.288L118.863 137.684L110.53 126.326L112.818 124.65L121.151 136.008L124.693 133.416L126.23 135.512Z" fill="#0B103D"/>
<path d="M99.0673 150.621L92.6709 135.217L95.2707 134.139L101.667 149.542L99.0673 150.621ZM108.524 139.743L97.5268 144.298L96.5322 141.899L107.53 137.345L108.524 139.743ZM109.426 146.333L103.03 130.929L105.629 129.851L112.026 145.254L109.426 146.333Z" fill="#0B103D"/>
<path d="M81.0345 149.159C80.5614 150.188 79.9145 151.073 79.0978 151.808C78.281 152.542 77.3309 153.104 76.2594 153.487C75.1839 153.871 74.0357 154.036 72.8106 153.988C71.5571 153.935 70.4129 153.673 69.3819 153.201C68.3509 152.728 67.4573 152.09 66.7053 151.287C65.9492 150.483 65.3831 149.551 64.995 148.485C64.6109 147.419 64.4451 146.26 64.4977 145.008C64.5502 143.769 64.813 142.63 65.2861 141.584C65.7592 140.538 66.402 139.642 67.2147 138.899C68.0274 138.156 68.9695 137.587 70.045 137.195C71.1205 136.804 72.2849 136.634 73.5424 136.687C74.7836 136.739 75.9238 137.006 76.971 137.486C78.0182 137.966 78.9078 138.613 79.6477 139.42C80.3876 140.228 80.9455 141.176 81.3296 142.259C81.7137 143.341 81.8795 144.499 81.827 145.735C81.7704 146.991 81.5075 148.133 81.0345 149.159ZM78.2447 142.521C77.7999 141.604 77.157 140.874 76.3201 140.329C75.4831 139.783 74.5168 139.489 73.4211 139.444C72.3092 139.396 71.3186 139.61 70.4453 140.082C69.576 140.555 68.8765 141.229 68.3549 142.105C67.8333 142.981 67.5463 143.991 67.4977 145.133C67.4492 146.276 67.6433 147.306 68.084 148.222C68.5247 149.139 69.1555 149.869 69.9843 150.411C70.8132 150.952 71.7917 151.25 72.9197 151.295C74.0154 151.339 75.006 151.129 75.8834 150.657C76.7608 150.184 77.4643 149.51 77.9859 148.634C78.5075 147.758 78.7945 146.748 78.8431 145.606C78.8916 144.471 78.6935 143.438 78.2447 142.521Z" fill="#0B103D"/>
<path d="M54.9556 150.907L58.449 140.393C58.7765 139.412 58.7765 138.54 58.453 137.773C58.1296 137.006 57.4543 136.452 56.4274 136.109C55.4166 135.774 54.5473 135.818 53.8195 136.238C53.0917 136.658 52.5661 137.357 52.2426 138.338L48.7493 148.852L46.0767 147.968L49.6064 137.341C49.8975 136.464 50.2978 135.734 50.8032 135.14C51.3086 134.547 51.8989 134.094 52.5742 133.783C53.2494 133.473 53.9812 133.303 54.7777 133.283C55.5742 133.263 56.391 133.392 57.236 133.67C58.0811 133.949 58.8169 134.337 59.4396 134.829C60.0622 135.322 60.5555 135.895 60.9154 136.549C61.2752 137.203 61.4774 137.918 61.5218 138.697C61.5663 139.473 61.441 140.296 61.1499 141.172L57.6201 151.799L54.9556 150.907Z" fill="#0B103D"/>
<path d="M38.2409 143.938L35.2893 142.089C34.2664 141.447 33.4861 140.708 32.9564 139.864C32.4227 139.024 32.1558 138.148 32.1478 137.232C32.1397 136.319 32.4146 135.415 32.9726 134.53C33.5305 133.642 34.226 133 35.0589 132.605C35.8918 132.209 36.8015 132.067 37.7921 132.181C38.7827 132.294 39.7895 132.673 40.8124 133.315L43.7599 135.164L42.5308 137.123L39.6803 135.338C39.1425 134.999 38.6088 134.797 38.0792 134.728C37.5495 134.66 37.0603 134.732 36.6074 134.942C36.1546 135.156 35.7705 135.512 35.4592 136.008C35.1397 136.521 34.9821 137.022 34.9901 137.514C34.9982 138.007 35.1519 138.475 35.443 138.923C35.7341 139.368 36.1506 139.763 36.6883 140.098L39.5388 141.883L38.2409 143.938ZM37.2705 143.333L46.1495 129.209L48.535 130.703L39.656 144.826L37.2705 143.333ZM38.8029 133.997L38.253 124.255L41.1237 126.055L41.3906 135.621L38.8029 133.997Z" fill="#0B103D"/>
<path d="M23.9966 117.633L24.5263 117.31L30.118 116.131L31.9739 118.699L12.902 122.389L22.4278 105.484L24.2837 108.052L21.4898 112.856L20.9723 113.317L17.491 119.086L23.9966 117.633ZM24.0289 119.107L19.4924 112.828L21.1057 110.991L26.2689 118.138L24.0289 119.107Z" fill="#0B103D"/>
<path d="M5.91929 108.665L4.66588 105.548C4.21708 104.43 4.01897 103.372 4.07557 102.383C4.13218 101.393 4.42733 100.525 4.957 99.7825C5.4907 99.0395 6.25083 98.4702 7.23738 98.0705C8.22797 97.6748 9.17409 97.5577 10.0798 97.7273C10.9855 97.8928 11.8022 98.3168 12.53 98.9911C13.2578 99.6654 13.844 100.566 14.2928 101.684L15.5462 104.801L13.2456 105.726L11.9922 102.609C11.6324 101.708 11.127 101.075 10.4801 100.699C9.83314 100.324 9.09727 100.303 8.2684 100.634C7.44359 100.966 6.93009 101.49 6.72793 102.201C6.52577 102.916 6.60664 103.723 6.96648 104.62L8.21989 107.737L5.91929 108.665ZM5.4907 107.607L20.9884 101.393L22.0356 104.002L6.5379 110.216L5.4907 107.607Z" fill="#0B103D"/>
<path d="M0.646917 92.4541L0.117253 89.1392C-0.0727788 87.9481 -0.0323464 86.8741 0.242593 85.9212C0.517533 84.9683 0.994635 84.1891 1.67794 83.5794C2.36125 82.9737 3.23054 82.5861 4.28178 82.4165C5.33302 82.2469 6.28318 82.3479 7.13226 82.7113C7.98134 83.0747 8.68082 83.6682 9.23879 84.4838C9.79675 85.3034 10.1728 86.3088 10.3628 87.4999L10.8925 90.8148L8.44227 91.2065L7.91261 87.8916C7.75896 86.9347 7.4072 86.2038 6.86137 85.6951C6.31149 85.1864 5.59988 85.0047 4.71845 85.146C3.84107 85.2873 3.22246 85.683 2.86665 86.3331C2.51085 86.9831 2.40977 87.7906 2.56341 88.7435L3.09307 92.0584L0.646917 92.4541ZM0.469014 91.3276L16.9573 88.6951L17.4021 91.473L0.91377 94.1055L0.469014 91.3276Z" fill="#0B103D"/>
<path d="M1.02293 61.655L6.31553 61.4813L7.78726 56.402L9.59054 61.3764L14.8831 61.2027L10.7024 64.449L12.5017 69.4234L8.11881 66.4557L3.93406 69.702L5.4058 64.6226L1.02293 61.655Z" fill="#0B103D"/>
</g>
<defs>
<clipPath id="clip0_1_524">
<rect width="153" height="154" fill="white"/>
</clipPath>
</defs>
</svg>
