<svg width="628" height="219" viewBox="0 0 628 219" fill="none" xmlns="http://www.w3.org/2000/svg">
<path d="M597.014 41.0392C596.134 40.1594 594.724 40.176 593.845 41.0553C592.949 41.9511 592.98 43.3768 593.845 44.2409L593.846 44.2421C602.745 53.1108 609.495 63.4428 614.026 74.9667C599.54 87.6716 577.411 87.1406 563.572 73.3611C558.306 68.0946 556.751 61.533 555.049 54.2408L555.04 54.2027C553.651 48.2122 552.192 41.9239 548.399 36.2682C544.748 30.8228 538.992 26.0388 529.265 22.5194C540.848 9.9454 556.342 2.97723 573.251 2.81392L573.252 2.81391C589.871 2.64573 605.703 9.43741 615.635 20.8903L615.635 20.8905C629.004 36.3001 629.537 57.5882 617.464 71.4762C612.722 60.0929 605.877 49.8721 597.014 41.0392ZM597.014 41.0392C597.014 41.0394 597.014 41.0396 597.015 41.0398L596.307 41.7472M597.014 41.0392C597.014 41.039 597.014 41.0388 597.013 41.0386L596.307 41.7472M596.307 41.7472C595.826 41.2657 595.049 41.2657 594.552 41.7627C594.055 42.2598 594.071 43.0519 594.552 43.5334L596.307 41.7472Z" fill="#0B103D" stroke="#0B103D" stroke-width="2"/>
<path d="M618.233 78.1214C644.729 154.188 604.368 214.586 571.795 218.005" stroke="#0B103D" stroke-width="2"/>
<path d="M30.8012 177.961C31.6817 178.841 33.0913 178.824 33.9707 177.945C34.8665 177.049 34.8348 175.623 33.9707 174.759L33.9695 174.758C25.0706 165.889 18.3206 155.557 13.789 144.033C28.2751 131.328 50.4041 131.859 64.2434 145.639C69.5089 150.905 71.0643 157.467 72.7663 164.759L72.7751 164.797C74.1647 170.788 75.6233 177.076 79.4157 182.732C83.0672 188.177 88.8232 192.961 98.5503 196.481C86.9676 209.055 71.4737 216.023 54.564 216.186L54.5635 216.186C37.9442 216.354 22.1125 209.563 12.1806 198.11L12.1804 198.109C-1.18839 182.7 -1.72157 161.412 10.351 147.524C15.0928 158.907 21.9383 169.128 30.8012 177.961ZM30.8012 177.961C30.801 177.961 30.8008 177.96 30.8006 177.96L31.5081 177.253M30.8012 177.961C30.8014 177.961 30.8016 177.961 30.8018 177.961L31.5081 177.253M31.5081 177.253C31.9896 177.734 32.7662 177.734 33.2632 177.237C33.7603 176.74 33.7447 175.948 33.2632 175.467L31.5081 177.253Z" fill="#0B103D" stroke="#0B103D" stroke-width="2"/>
<path d="M9.58188 140.879C-16.9134 64.8116 23.4468 4.41377 56.0198 0.995026" stroke="#0B103D" stroke-width="2"/>
</svg>
