<svg width="204" height="25" viewBox="0 0 204 25" fill="none" xmlns="http://www.w3.org/2000/svg">
<path fill-rule="evenodd" clip-rule="evenodd" d="M16.0702 21.4311L13.22 18.5716L13.2048 18.587C12.1587 19.6324 10.8853 20.1551 9.39952 20.1551C7.91379 20.1551 6.65547 19.6324 5.59423 18.587C4.54816 17.5416 4.01754 16.2655 4.01754 14.7896C4.01754 13.2984 4.54816 12.0377 5.59423 10.9923C6.64031 9.94689 7.91379 9.42418 9.39952 9.42418C10.8853 9.42418 12.1436 9.94689 13.2048 10.9923L13.22 11.0077L16.0702 8.14815L16.055 8.13278C14.2206 6.30329 12.0071 5.38086 9.39952 5.38086C6.79191 5.38086 4.57848 6.30329 2.74405 8.13278C0.909631 9.96226 0 12.1915 0 14.7896C0 17.3878 0.909631 19.617 2.74405 21.4465C4.57848 23.276 6.79191 24.1984 9.39952 24.1984C12.0071 24.1984 14.2206 23.276 16.055 21.4465L16.0702 21.4311Z" fill="#0B103D"/>
<path fill-rule="evenodd" clip-rule="evenodd" d="M31.1549 5.38086V7.04124C29.6085 5.93432 27.8044 5.38086 25.7729 5.38086C23.1653 5.38086 20.9518 6.30329 19.1174 8.13278C17.283 9.96226 16.3734 12.1915 16.3734 14.7896C16.3734 17.3878 17.283 19.617 19.1174 21.4465C20.9518 23.276 23.1653 24.1984 25.7729 24.1984C28.3805 24.1984 30.5939 23.276 32.4283 21.4465C34.2628 19.617 35.1724 17.3878 35.1724 14.7896V5.38086H31.1549ZM25.788 20.1705C24.3023 20.1705 23.044 19.6478 21.9827 18.6024C20.9367 17.5569 20.4061 16.2809 20.4061 14.805C20.4061 13.3138 20.9367 12.0531 21.9827 11.0077C23.0288 9.96226 24.3023 9.43955 25.788 9.43955C27.2738 9.43955 28.5321 9.96226 29.5933 11.0077C30.6394 12.0531 31.17 13.3291 31.17 14.805C31.17 16.2963 30.6394 17.5569 29.5933 18.6024C28.5472 19.6478 27.2738 20.1705 25.788 20.1705Z" fill="#0B103D"/>
<path fill-rule="evenodd" clip-rule="evenodd" d="M40.8425 14.7896V24.1984H36.825V14.7896C36.825 12.1915 37.7346 9.96226 39.569 8.13278C41.4034 6.30329 43.6169 5.38086 46.2245 5.38086C48.8321 5.38086 51.0455 6.30329 52.8799 8.13278L52.8951 8.14815L50.0449 11.0077L50.0298 10.9923C48.9685 9.94689 47.7102 9.42418 46.2245 9.42418C44.7387 9.42418 43.4653 9.94689 42.4192 10.9923C41.3731 12.0377 40.8425 13.2984 40.8425 14.7896Z" fill="#0B103D"/>
<path fill-rule="evenodd" clip-rule="evenodd" d="M53.1983 0H57.231V7.04122C58.7774 5.9343 60.5663 5.38084 62.5978 5.38084C65.2054 5.38084 67.4189 6.30327 69.2533 8.13276C71.0877 9.96224 71.9973 12.1915 71.9973 14.7896C71.9973 17.3878 71.0877 19.617 69.2533 21.4465C67.4189 23.276 65.2054 24.1984 62.5978 24.1984C59.9902 24.1984 57.7768 23.276 55.9424 21.4465C54.1079 19.617 53.1983 17.3878 53.1983 14.7896V0ZM58.7925 18.6023C59.8538 19.6478 61.1121 20.1705 62.5978 20.1705C64.0836 20.1705 65.357 19.6478 66.4031 18.6023C67.4492 17.5569 67.9798 16.2963 67.9798 14.805C67.9798 13.3291 67.4492 12.0531 66.4031 11.0077C65.3419 9.96224 64.0836 9.43953 62.5978 9.43953C61.1121 9.43953 59.8386 9.96224 58.7925 11.0077C57.7465 12.0531 57.2158 13.3137 57.2158 14.805C57.2158 16.2809 57.7465 17.5569 58.7925 18.6023Z" fill="#0B103D"/>
<path fill-rule="evenodd" clip-rule="evenodd" d="M92.4337 14.7896C92.4337 17.3878 91.5241 19.617 89.6896 21.4465C87.8552 23.276 85.6418 24.1984 83.0342 24.1984C80.4266 24.1984 78.2131 23.276 76.3787 21.4465C74.5443 19.617 73.6346 17.3878 73.6346 14.7896C73.6346 12.1915 74.5443 9.96226 76.3787 8.13278C78.2131 6.30329 80.4266 5.38086 83.0342 5.38086C85.6418 5.38086 87.8552 6.30329 89.6896 8.13278C91.5241 9.96226 92.4337 12.1915 92.4337 14.7896ZM79.2289 18.6024C80.2901 19.6478 81.5484 20.1705 83.0342 20.1705C84.5199 20.1705 85.7934 19.6478 86.8395 18.6024C87.8855 17.5569 88.4162 16.2963 88.4162 14.805C88.4162 13.3291 87.8855 12.0531 86.8395 11.0077C85.7782 9.96226 84.5199 9.43955 83.0342 9.43955C81.5484 9.43955 80.275 9.96226 79.2289 11.0077C78.1828 12.0531 77.6522 13.3138 77.6522 14.805C77.6522 16.2809 78.1828 17.5569 79.2289 18.6024Z" fill="#0B103D"/>
<path fill-rule="evenodd" clip-rule="evenodd" d="M98.0734 14.7896C98.0734 13.2984 98.604 12.0377 99.6501 10.9923C100.696 9.94689 101.97 9.42418 103.455 9.42418C104.941 9.42418 106.199 9.94689 107.261 10.9923C108.307 12.0377 108.837 13.3138 108.837 14.7896V24.1984H112.87V14.7896C112.87 12.1915 111.96 9.96226 110.126 8.13278C108.292 6.30329 106.078 5.38086 103.471 5.38086C100.863 5.38086 98.6495 6.30329 96.8151 8.13278C94.9807 9.96226 94.071 12.1915 94.071 14.7896V24.1984H98.1037V14.7896H98.0734Z" fill="#0B103D"/>
<path fill-rule="evenodd" clip-rule="evenodd" d="M116.706 0H112.673V24.1984H116.706V18.8176L123.422 24.1984H128.804L119.814 16.4961L128.804 5.38084H123.983L116.706 14.0363V0Z" fill="#F8CC34"/>
<path fill-rule="evenodd" clip-rule="evenodd" d="M133.094 2.01397C133.094 2.5828 132.897 3.04402 132.503 3.44374C132.109 3.82809 131.639 4.02794 131.078 4.02794C130.517 4.02794 130.047 3.84346 129.653 3.44374C129.259 3.04402 129.062 2.56743 129.062 2.01397C129.062 1.44514 129.259 0.983925 129.653 0.584207C130.047 0.199862 130.517 0 131.078 0C131.639 0 132.109 0.184484 132.503 0.584207C132.897 0.983925 133.094 1.46052 133.094 2.01397ZM129.062 24.1984V5.38084H133.094V24.1984H129.062Z" fill="#F8CC34"/>
<path fill-rule="evenodd" clip-rule="evenodd" d="M150.787 21.4311L147.936 18.5716L147.921 18.587C146.875 19.6324 145.602 20.1551 144.116 20.1551C142.63 20.1551 141.372 19.6324 140.311 18.587C139.265 17.5416 138.734 16.2655 138.734 14.7896C138.734 13.2984 139.265 12.0377 140.311 10.9923C141.357 9.94689 142.63 9.42418 144.116 9.42418C145.602 9.42418 146.86 9.94689 147.921 10.9923L147.936 11.0077L150.787 8.14815L150.771 8.13278C148.937 6.30329 146.724 5.38086 144.116 5.38086C141.508 5.38086 139.295 6.30329 137.46 8.13278C135.626 9.96226 134.716 12.1915 134.716 14.7896C134.716 17.3878 135.626 19.617 137.46 21.4465C139.295 23.276 141.508 24.1984 144.116 24.1984C146.724 24.1984 148.937 23.276 150.771 21.4465L150.787 21.4311Z" fill="#F8CC34"/>
<path fill-rule="evenodd" clip-rule="evenodd" d="M155.138 0H151.105V24.1984H155.138V18.8176L161.854 24.1984H167.221L158.246 16.4961L167.221 5.38084H162.415L155.138 14.0363V0Z" fill="#F8CC34"/>
<path fill-rule="evenodd" clip-rule="evenodd" d="M186.171 16.1272H171.678C171.905 17.0496 172.375 17.8798 173.088 18.587C174.149 19.6324 175.407 20.1551 176.893 20.1551C178.379 20.1551 179.652 19.6324 180.698 18.587L180.713 18.5716L183.564 21.4311L183.548 21.4465C181.714 23.276 179.501 24.1984 176.893 24.1984C174.285 24.1984 172.072 23.276 170.238 21.4465C168.403 19.617 167.493 17.3878 167.493 14.7896C167.493 12.1915 168.403 9.96226 170.238 8.13278C172.072 6.30329 174.285 5.38086 176.893 5.38086C179.501 5.38086 181.714 6.30329 183.548 8.13278C185.383 9.96226 186.293 12.1915 186.293 14.7896C186.293 15.2355 186.262 15.6813 186.171 16.1272ZM172.239 12.0992H181.578C181.35 11.7149 181.062 11.3459 180.713 10.9923C179.652 9.94689 178.394 9.42418 176.908 9.42418C175.422 9.42418 174.149 9.94689 173.103 10.9923C172.754 11.3305 172.466 11.7149 172.239 12.0992Z" fill="#F8CC34"/>
<path fill-rule="evenodd" clip-rule="evenodd" d="M187.93 24.1984H191.947V14.7896C191.947 13.2984 192.478 12.0377 193.524 10.9923C194.57 9.94689 195.844 9.42418 197.329 9.42418C198.815 9.42418 200.073 9.94689 201.135 10.9923L201.15 11.0077L204 8.14815L203.985 8.13278C202.15 6.30329 199.937 5.38086 197.329 5.38086C194.722 5.38086 192.508 6.30329 190.674 8.13278C188.84 9.96226 187.93 12.1915 187.93 14.7896V24.1984Z" fill="#F8CC34"/>
</svg>
